<?xml version="1.0" standalone="no"?>
<!DOCTYPE svg PUBLIC "-//W3C//DTD SVG 1.1//EN" "http://www.w3.org/Graphics/SVG/1.1/DTD/svg11.dtd" >
<svg xmlns="http://www.w3.org/2000/svg" xmlns:xlink="http://www.w3.org/1999/xlink" version="1.1">
<metadata></metadata>
<defs>
<font id="sf_sports_night_nsregular" horiz-adv-x="1365" >
<font-face units-per-em="2048" ascent="1638" descent="-410" />
<missing-glyph horiz-adv-x="796" />
<glyph horiz-adv-x="0" />
<glyph unicode="&#xd;" horiz-adv-x="796" />
<glyph unicode=" "  horiz-adv-x="796" />
<glyph unicode="&#x09;" horiz-adv-x="796" />
<glyph unicode="&#xa0;" horiz-adv-x="796" />
<glyph unicode="!" horiz-adv-x="455" d="M-64 0l62 341h341l-61 -341h-342zM16 455l161 910h342l-162 -910h-341z" />
<glyph unicode="&#x22;" horiz-adv-x="853" d="M48 1024l59 341h341l-59 -341l-212 -228l41 228h-170zM446 1024l59 341h342l-60 -341l-211 -228l41 228h-171z" />
<glyph unicode="'" horiz-adv-x="455" d="M48 1024l59 341h341l-59 -341l-212 -228l41 228h-170z" />
<glyph unicode="(" horiz-adv-x="728" d="M30 416q0 116 27 267q43 246 135 424.5t279 371.5h341q-196 -189 -294.5 -368.5t-142.5 -427.5q-25 -141 -25 -255q0 -280 180 -542h-341q-159 264 -159 530z" />
<glyph unicode=")" horiz-adv-x="728" d="M-84 -114q196 189 294.5 369t142.5 428q25 141 25 255q0 280 -180 541h341q160 -264 160 -530q0 -116 -28 -266q-43 -246 -135 -424.5t-279 -372.5h-341z" />
<glyph unicode="," horiz-adv-x="455" d="M48 0l59 341h341l-59 -341l-212 -228l41 228h-170z" />
<glyph unicode="." horiz-adv-x="455" d="M27 0l59 341h342l-59 -341h-342z" />
<glyph unicode="/" horiz-adv-x="612" d="M-134 -73l553 1570l327 -59l-555 -1570z" />
<glyph unicode="0" d="M-11 264q0 27 4 55l128 728q23 132 133 225t242 93h614q116 0 191.5 -75t75.5 -189q0 -27 -5 -54l-127 -728q-23 -132 -133.5 -225.5t-242.5 -93.5h-614q-116 0 -191 75t-75 189zM419 410h432l96 546h-433z" />
<glyph unicode="1" horiz-adv-x="523" d="M-64 0l241 1365h410l-241 -1365h-410z" />
<glyph unicode="2" d="M-64 0l94 523q23 132 132 225.5t241 93.5h523l21 114h-842l72 409h933q116 0 191.5 -75t75.5 -189q0 -27 -5 -54l-36 -205q-23 -132 -132 -225.5t-241 -93.5h-524l-20 -113h842l-73 -410h-1252z" />
<glyph unicode="3" d="M-64 0l73 410h842l21 113h-387l54 319h387l21 114h-842l72 409h933q116 0 191.5 -74.5t75.5 -186.5q0 -30 -5 -57l-36 -205q-11 -71 -116 -159q64 -77 63 -137q0 -11 -2 -23l-36 -204q-23 -132 -133.5 -225.5t-242.5 -93.5h-933z" />
<glyph unicode="4" d="M30 523l147 842h410l-93 -523h432l93 523h410l-241 -1365h-410l94 523h-842z" />
<glyph unicode="5" d="M-64 0l73 410h842l21 113h-524q-118 0 -193 75.5t-75 188.5q0 27 4 55l93 523h1252l-73 -409h-842l-20 -114h523q118 0 193.5 -75t75.5 -187q0 -30 -5 -57l-36 -204q-23 -132 -133.5 -225.5t-242.5 -93.5h-933z" />
<glyph unicode="6" d="M-11 264q0 27 4 55l128 728q23 132 133 225t242 93h933l-73 -409h-842l-20 -114h523q118 0 193.5 -75t75.5 -187q0 -30 -5 -57l-36 -204q-23 -132 -133.5 -225.5t-242.5 -93.5h-614q-116 0 -191 75t-75 189zM419 410h432l21 113h-433z" />
<glyph unicode="7" d="M-64 0l692 956h-523l72 409h1252l-992 -1365h-501z" />
<glyph unicode="8" d="M-11 262q0 30 4 57l37 204q11 71 116 160q-64 77 -64 136q0 11 2 23l37 205q23 132 133 225t242 93h614q116 0 191.5 -74.5t75.5 -186.5q0 -30 -5 -57l-36 -205q-11 -71 -116 -159q64 -77 63 -137q0 -11 -2 -23l-36 -204q-23 -132 -133.5 -225.5t-242.5 -93.5h-614 q-116 0 -191 75t-75 187zM419 410h432l21 113h-433zM494 842h432l21 114h-433z" />
<glyph unicode="9" d="M-64 0l73 410h842l21 113h-524q-118 0 -193 75.5t-75 186.5q0 30 4 57l37 205q23 132 133 225t242 93h614q116 0 191.5 -75t75.5 -189q0 -27 -5 -54l-127 -728q-23 -132 -133.5 -225.5t-242.5 -93.5h-933zM494 842h432l21 114h-433z" />
<glyph unicode=":" horiz-adv-x="455" d="M-27 0l59 341h341l-59 -341h-341zM82 614l59 342h341l-59 -342h-341z" />
<glyph unicode=";" horiz-adv-x="455" d="M-7 0l59 341h342l-59 -341l-212 -228l41 228h-171zM100 614l62 342h341l-62 -342h-341z" />
<glyph unicode="?" horiz-adv-x="1137" d="M-64 0l62 341h341l-61 -341h-342zM16 455l32 182q20 114 114.5 193.5t208.5 79.5h410l18 114h-683l61 341h751q100 0 165 -63.5t65 -161.5q0 -23 -4 -48l-46 -250q-18 -114 -112.5 -193.5t-208.5 -79.5h-409l-21 -114h-341z" />
<glyph unicode="A" horiz-adv-x="1297" d="M-121 0l583 1365h614l100 -1365h-409l-14 182h-387l-77 -182h-410zM514 523h216l-34 433z" />
<glyph unicode="B" horiz-adv-x="1410" d="M-64 0l241 1365h979q116 0 191 -75t75 -189q0 -27 -4 -54l-37 -205q-11 -71 -116 -159q61 -77 62 -137v-23l-37 -204q-23 -132 -133 -225.5t-242 -93.5h-979zM419 410h478l20 113h-478zM494 842h478l20 114h-478z" />
<glyph unicode="C" d="M-11 264q0 27 4 55l128 728q23 132 133 225t242 93h933l-73 -409h-842l-95 -546h842l-73 -410h-933q-116 0 -191 75t-75 189z" />
<glyph unicode="D" d="M-64 0l241 1365h933q116 0 191.5 -75t75.5 -189q0 -27 -5 -54l-127 -728q-23 -132 -133.5 -225.5t-242.5 -93.5h-933zM419 410h432l96 546h-433z" />
<glyph unicode="E" horiz-adv-x="1251" d="M-64 0l241 1365h1138l-73 -409h-728l-20 -114h728l-55 -319h-728l-20 -113h728l-73 -410h-1138z" />
<glyph unicode="F" horiz-adv-x="1251" d="M-64 0l241 1365h1138l-73 -409h-728l-20 -114h728l-55 -319h-728l-93 -523h-410z" />
<glyph unicode="G" d="M-11 264q0 27 4 55l128 728q23 132 133 225t242 93h933l-73 -409h-842l-95 -546h432l21 113h-183l55 319h592l-91 -523q-23 -132 -133.5 -225.5t-242.5 -93.5h-614q-116 0 -191 75t-75 189z" />
<glyph unicode="H" d="M-64 0l241 1365h410l-93 -523h432l93 523h410l-241 -1365h-410l94 523h-433l-93 -523h-410z" />
<glyph unicode="I" horiz-adv-x="523" d="M-64 0l241 1365h410l-241 -1365h-410z" />
<glyph unicode="J" d="M-11 264q0 27 4 55l37 204h409l-20 -113h432l168 955h410l-184 -1046q-23 -132 -133.5 -225.5t-242.5 -93.5h-614q-116 0 -191 75t-75 189z" />
<glyph unicode="K" horiz-adv-x="1308" d="M-64 0l241 1365h410l-100 -559l464 559h478l-564 -682l323 -683h-478l-264 560l-100 -560h-410z" />
<glyph unicode="L" horiz-adv-x="1251" d="M-64 0l241 1365h410l-168 -955h728l-73 -410h-1138z" />
<glyph unicode="M" horiz-adv-x="1592" d="M-64 0l241 1365h410l230 -571l430 571h410l-242 -1365h-409l100 571l-430 -571l-230 571l-100 -571h-410z" />
<glyph unicode="N" d="M-64 0l241 1365h933q116 0 191.5 -75t75.5 -189q0 -27 -5 -54l-184 -1047h-410l169 956h-433l-168 -956h-410z" />
<glyph unicode="O" d="M-11 264q0 27 4 55l128 728q23 132 133 225t242 93h614q116 0 191.5 -75t75.5 -189q0 -27 -5 -54l-127 -728q-23 -132 -133.5 -225.5t-242.5 -93.5h-614q-116 0 -191 75t-75 189zM419 410h432l96 546h-433z" />
<glyph unicode="P" d="M-64 0l241 1365h933q116 0 191.5 -75t75.5 -189q0 -27 -5 -54l-36 -205q-23 -132 -132 -225.5t-241 -93.5h-524l-93 -523h-410zM494 842h432l21 114h-433z" />
<glyph unicode="Q" horiz-adv-x="1479" d="M-11 264q0 27 4 55l128 728q23 132 133 225t242 93h614q116 0 191.5 -75t75.5 -189q0 -27 -5 -54l-111 -637h113l-72 -410h-1047q-116 0 -191 75t-75 189zM419 410h432l96 546h-433z" />
<glyph unicode="R" d="M-64 0l241 1365h933q116 0 191.5 -75t75.5 -189q0 -27 -5 -54l-36 -205q-11 -71 -116 -159q61 -77 61 -137v-23l-93 -523h-410l94 523h-433l-93 -523h-410zM494 842h432l21 114h-433z" />
<glyph unicode="S" d="M-64 0l73 410h842l21 113h-524q-118 0 -193 75.5t-75 186.5q0 30 4 57l37 205q23 132 133 225t242 93h933l-73 -409h-842l-20 -114h523q118 0 193.5 -75t75.5 -189q0 -27 -5 -55l-36 -204q-23 -132 -133.5 -225.5t-242.5 -93.5h-933z" />
<glyph unicode="T" d="M105 956l72 409h1252l-73 -409h-421l-168 -956h-410l169 956h-421z" />
<glyph unicode="U" d="M-11 264q0 27 4 55l184 1046h410l-168 -955h432l168 955h410l-184 -1046q-23 -132 -133.5 -225.5t-242.5 -93.5h-614q-116 0 -191 75t-75 189z" />
<glyph unicode="V" horiz-adv-x="1297" d="M121 1365h409l71 -955l407 955h410l-583 -1365h-614z" />
<glyph unicode="W" horiz-adv-x="2002" d="M121 1365h409l57 -773l330 773h410l57 -773l329 773h410l-582 -1365h-524l-41 546l-232 -546h-523z" />
<glyph unicode="X" d="M-121 0l565 683l-323 682h477l151 -314l259 314h478l-564 -682l323 -683h-478l-150 314l-260 -314h-478z" />
<glyph unicode="Y" d="M121 1365h477l151 -314l259 314h478l-608 -728l-111 -637h-410l112 637z" />
<glyph unicode="Z" d="M-64 0l692 956h-523l72 409h1252l-692 -955h524l-73 -410h-1252z" />
<glyph unicode="[" horiz-adv-x="682" d="M-84 -114l282 1593h569l-62 -341h-227l-159 -910h227l-61 -342h-569z" />
<glyph unicode="\" horiz-adv-x="612" d="M134 -132v1570l346 59l-2 -1570z" />
<glyph unicode="]" horiz-adv-x="682" d="M-84 -114l61 342h228l159 910h-227l61 341h569l-282 -1593h-569z" />
<glyph unicode="a" horiz-adv-x="1297" d="M-121 0l583 1365h614l100 -1365h-409l-14 182h-387l-77 -182h-410zM514 523h216l-34 433z" />
<glyph unicode="b" horiz-adv-x="1410" d="M-64 0l241 1365h979q116 0 191 -75t75 -189q0 -27 -4 -54l-37 -205q-11 -71 -116 -159q61 -77 62 -137v-23l-37 -204q-23 -132 -133 -225.5t-242 -93.5h-979zM419 410h478l20 113h-478zM494 842h478l20 114h-478z" />
<glyph unicode="c" d="M-11 264q0 27 4 55l128 728q23 132 133 225t242 93h933l-73 -409h-842l-95 -546h842l-73 -410h-933q-116 0 -191 75t-75 189z" />
<glyph unicode="d" d="M-64 0l241 1365h933q116 0 191.5 -75t75.5 -189q0 -27 -5 -54l-127 -728q-23 -132 -133.5 -225.5t-242.5 -93.5h-933zM419 410h432l96 546h-433z" />
<glyph unicode="e" horiz-adv-x="1251" d="M-64 0l241 1365h1138l-73 -409h-728l-20 -114h728l-55 -319h-728l-20 -113h728l-73 -410h-1138z" />
<glyph unicode="f" horiz-adv-x="1251" d="M-64 0l241 1365h1138l-73 -409h-728l-20 -114h728l-55 -319h-728l-93 -523h-410z" />
<glyph unicode="g" d="M-11 264q0 27 4 55l128 728q23 132 133 225t242 93h933l-73 -409h-842l-95 -546h432l21 113h-183l55 319h592l-91 -523q-23 -132 -133.5 -225.5t-242.5 -93.5h-614q-116 0 -191 75t-75 189z" />
<glyph unicode="h" d="M-64 0l241 1365h410l-93 -523h432l93 523h410l-241 -1365h-410l94 523h-433l-93 -523h-410z" />
<glyph unicode="i" horiz-adv-x="523" d="M-64 0l241 1365h410l-241 -1365h-410z" />
<glyph unicode="j" d="M-11 264q0 27 4 55l37 204h409l-20 -113h432l168 955h410l-184 -1046q-23 -132 -133.5 -225.5t-242.5 -93.5h-614q-116 0 -191 75t-75 189z" />
<glyph unicode="k" horiz-adv-x="1308" d="M-64 0l241 1365h410l-100 -559l464 559h478l-564 -682l323 -683h-478l-264 560l-100 -560h-410z" />
<glyph unicode="l" horiz-adv-x="1251" d="M-64 0l241 1365h410l-168 -955h728l-73 -410h-1138z" />
<glyph unicode="m" horiz-adv-x="1592" d="M-64 0l241 1365h410l230 -571l430 571h410l-242 -1365h-409l100 571l-430 -571l-230 571l-100 -571h-410z" />
<glyph unicode="n" d="M-64 0l241 1365h933q116 0 191.5 -75t75.5 -189q0 -27 -5 -54l-184 -1047h-410l169 956h-433l-168 -956h-410z" />
<glyph unicode="o" d="M-11 264q0 27 4 55l128 728q23 132 133 225t242 93h614q116 0 191.5 -75t75.5 -189q0 -27 -5 -54l-127 -728q-23 -132 -133.5 -225.5t-242.5 -93.5h-614q-116 0 -191 75t-75 189zM419 410h432l96 546h-433z" />
<glyph unicode="p" d="M-64 0l241 1365h933q116 0 191.5 -75t75.5 -189q0 -27 -5 -54l-36 -205q-23 -132 -132 -225.5t-241 -93.5h-524l-93 -523h-410zM494 842h432l21 114h-433z" />
<glyph unicode="q" horiz-adv-x="1479" d="M-11 264q0 27 4 55l128 728q23 132 133 225t242 93h614q116 0 191.5 -75t75.5 -189q0 -27 -5 -54l-111 -637h113l-72 -410h-1047q-116 0 -191 75t-75 189zM419 410h432l96 546h-433z" />
<glyph unicode="r" d="M-64 0l241 1365h933q116 0 191.5 -75t75.5 -189q0 -27 -5 -54l-36 -205q-11 -71 -116 -159q61 -77 61 -137v-23l-93 -523h-410l94 523h-433l-93 -523h-410zM494 842h432l21 114h-433z" />
<glyph unicode="s" d="M-64 0l73 410h842l21 113h-524q-118 0 -193 75.5t-75 186.5q0 30 4 57l37 205q23 132 133 225t242 93h933l-73 -409h-842l-20 -114h523q118 0 193.5 -75t75.5 -189q0 -27 -5 -55l-36 -204q-23 -132 -133.5 -225.5t-242.5 -93.5h-933z" />
<glyph unicode="t" d="M105 956l72 409h1252l-73 -409h-421l-168 -956h-410l169 956h-421z" />
<glyph unicode="u" d="M-11 264q0 27 4 55l184 1046h410l-168 -955h432l168 955h410l-184 -1046q-23 -132 -133.5 -225.5t-242.5 -93.5h-614q-116 0 -191 75t-75 189z" />
<glyph unicode="v" horiz-adv-x="1297" d="M121 1365h409l71 -955l407 955h410l-583 -1365h-614z" />
<glyph unicode="w" horiz-adv-x="2002" d="M121 1365h409l57 -773l330 773h410l57 -773l329 773h410l-582 -1365h-524l-41 546l-232 -546h-523z" />
<glyph unicode="x" d="M-121 0l565 683l-323 682h477l151 -314l259 314h478l-564 -682l323 -683h-478l-150 314l-260 -314h-478z" />
<glyph unicode="y" horiz-adv-x="1422" d="M121 1365h477l151 -314l259 314h478l-608 -728l-111 -637h-410l112 637z" />
<glyph unicode="z" d="M-64 0l692 956h-523l72 409h1252l-692 -955h524l-73 -410h-1252z" />
<glyph unicode="{" horiz-adv-x="796" d="M52 660l21 114q48 0 87.5 39.5t51.5 96.5l52 296q18 114 112.5 193.5t208.5 79.5h296l-62 -341h-227l-60 -342q-9 -48 -47.5 -80.5t-86.5 -32.5q41 0 68.5 -27.5t27.5 -66.5q0 -11 -2 -20l-60 -341h228l-62 -342h-295q-100 0 -164 64t-64 162q0 23 2 47l69 387q2 9 2 21 q0 41 -26 67t-70 26z" />
<glyph unicode="|" horiz-adv-x="455" d="M-84 -114l282 1593h341l-282 -1593h-341z" />
<glyph unicode="}" horiz-adv-x="796" d="M-84 -114l61 342h228l59 341q9 48 47.5 81t86.5 33q-41 0 -68 27t-27 66q0 11 2 20l59 342h-227l61 341h296q100 0 163.5 -63.5t63.5 -161.5q0 -23 -2 -48l-52 -296q-2 -14 -3 -27q0 -48 25 -78.5t66 -30.5l-20 -114q-46 0 -85.5 -33t-48.5 -81l-69 -387 q-18 -114 -112.5 -193.5t-207.5 -79.5h-296z" />
<glyph unicode="&#xa1;" horiz-adv-x="455" d="M-64 0l162 910h341l-161 -910h-342zM116 1024l61 341h342l-62 -341h-341z" />
<glyph unicode="&#xbf;" horiz-adv-x="1137" d="M-20 225q0 23 4 48l46 250q18 114 112.5 193.5t207.5 79.5h410l21 114h341l-32 -182q-20 -114 -114.5 -193.5t-208.5 -79.5h-410l-18 -114h683l-62 -341h-751q-100 0 -164.5 63.5t-64.5 161.5zM799 1024l61 341h341l-61 -341h-341z" />
<glyph unicode="&#x2000;" horiz-adv-x="748" />
<glyph unicode="&#x2001;" horiz-adv-x="1497" />
<glyph unicode="&#x2002;" horiz-adv-x="748" />
<glyph unicode="&#x2003;" horiz-adv-x="1497" />
<glyph unicode="&#x2004;" horiz-adv-x="499" />
<glyph unicode="&#x2005;" horiz-adv-x="374" />
<glyph unicode="&#x2006;" horiz-adv-x="249" />
<glyph unicode="&#x2007;" horiz-adv-x="249" />
<glyph unicode="&#x2008;" horiz-adv-x="187" />
<glyph unicode="&#x2009;" horiz-adv-x="299" />
<glyph unicode="&#x200a;" horiz-adv-x="83" />
<glyph unicode="&#x2018;" horiz-adv-x="455" d="M7 796l59 342l212 227l-41 -227h170l-59 -342h-341z" />
<glyph unicode="&#x2019;" horiz-adv-x="455" d="M48 1024l59 341h341l-59 -341l-212 -228l41 228h-170z" />
<glyph unicode="&#x201a;" horiz-adv-x="455" d="M48 0l59 341h341l-59 -341l-212 -228l41 228h-170z" />
<glyph unicode="&#x201c;" horiz-adv-x="853" d="M7 796l59 342l212 227l-41 -227h170l-59 -342h-341zM405 796l59 342l212 227l-41 -227h171l-60 -342h-341z" />
<glyph unicode="&#x201d;" horiz-adv-x="853" d="M48 1024l59 341h341l-59 -341l-212 -228l41 228h-170zM446 1024l59 341h342l-60 -341l-211 -228l41 228h-171z" />
<glyph unicode="&#x201e;" horiz-adv-x="853" d="M48 0l59 341h341l-59 -341l-212 -228l41 228h-170zM446 0l59 341h342l-60 -341l-211 -228l41 228h-171z" />
<glyph unicode="&#x202f;" horiz-adv-x="299" />
<glyph unicode="&#x205f;" horiz-adv-x="374" />
<glyph unicode="&#x25fc;" d="M0 0v1365h1365v-1365h-1365z" />
</font>
</defs>
</svg>
