<svg id="Calque_1" data-name="Calque 1" xmlns="http://www.w3.org/2000/svg" xmlns:xlink="http://www.w3.org/1999/xlink" width="100" height="100" viewBox="0 0 100 100">
  <defs>
    <style>
      .cls-1 {
        fill: none;
      }

      .cls-2 {
        clip-path: url(#clip-path);
      }

      .cls-3 {
        clip-path: url(#clip-path-2);
      }

      .cls-4 {
        clip-path: url(#clip-path-3);
      }

      .cls-5 {
        clip-path: url(#clip-path-4);
      }

      .cls-6 {
        clip-path: url(#clip-path-5);
      }

      .cls-7 {
        clip-path: url(#clip-path-6);
      }

      .cls-8 {
        clip-path: url(#clip-path-7);
      }

      .cls-9 {
        clip-path: url(#clip-path-8);
      }

      .cls-10 {
        clip-path: url(#clip-path-9);
      }

      .cls-11 {
        clip-path: url(#clip-path-10);
      }
    </style>
    <clipPath id="clip-path">
      <path class="cls-1" d="M274.5,96.5A46.5,46.5,0,1,1,321,50,46.55,46.55,0,0,1,274.5,96.5Zm0-89.33A42.83,42.83,0,1,0,317.33,50,42.87,42.87,0,0,0,274.5,7.17Z"/>
    </clipPath>
    <clipPath id="clip-path-2">
      <path class="cls-1" d="M161,96.5A46.5,46.5,0,1,1,207.5,50,46.55,46.55,0,0,1,161,96.5Zm0-89.33A42.83,42.83,0,1,0,203.83,50,42.87,42.87,0,0,0,161,7.17Z"/>
    </clipPath>
    <clipPath id="clip-path-3">
      <path class="cls-1" d="M50,96.5A46.5,46.5,0,1,1,96.5,50,46.55,46.55,0,0,1,50,96.5ZM50,7.17A42.83,42.83,0,1,0,92.83,50,42.87,42.87,0,0,0,50,7.17Z"/>
    </clipPath>
    <clipPath id="clip-path-4">
      <path class="cls-1" d="M-65.59,84.25a1.73,1.73,0,0,1-1.1-1.85q0-13.55,0-27.09v-.88h-8.53c-1.3,0-1.79-.47-1.8-1.75V42.11c0-1.24.52-1.73,1.77-1.73,2.59,0,5.17,0,7.76,0h.8V39.6c0-2.72-.06-5.44.05-8.16a16.43,16.43,0,0,1,4-10.6,13.84,13.84,0,0,1,9.15-4.77c3.27-.33,6.59-.23,9.88-.31.69,0,1.38,0,2.07,0A1.41,1.41,0,0,1-40,17.31q0,5.09,0,10.17c0,1-.55,1.51-1.61,1.53-2.34,0-4.69,0-7,.11a3.21,3.21,0,0,0-3,1.62,4.74,4.74,0,0,0-.52,2c-.06,2.51,0,5,0,7.66h9.94c1.38,0,1.85.47,1.85,1.84q0,5.22,0,10.44c0,1.29-.48,1.77-1.78,1.77h-10v.84q0,13.51,0,27a1.88,1.88,0,0,1-1.06,2Z"/>
    </clipPath>
    <clipPath id="clip-path-5">
      <path class="cls-1" d="M-58.5,96.5A46.55,46.55,0,0,1-105,50,46.55,46.55,0,0,1-58.5,3.5,46.55,46.55,0,0,1-12,50,46.55,46.55,0,0,1-58.5,96.5Zm0-89.33A42.87,42.87,0,0,0-101.33,50,42.87,42.87,0,0,0-58.5,92.83,42.87,42.87,0,0,0-15.67,50,42.87,42.87,0,0,0-58.5,7.17Z"/>
    </clipPath>
    <clipPath id="clip-path-6">
      <path class="cls-1" d="M40.12,61.34a10.12,10.12,0,0,1-9.21-7.05,9.81,9.81,0,0,0,4.28-.19,10.41,10.41,0,0,1-5.68-3.63,9.94,9.94,0,0,1-2.19-6.38,10,10,0,0,0,4.4,1.2c-4.46-3.7-5.43-8.15-3-13.48a28.93,28.93,0,0,0,20.84,10.6c-.06-.64-.15-1.21-.17-1.8a9.71,9.71,0,0,1,3.15-7.86,9.84,9.84,0,0,1,9-2.53,9.38,9.38,0,0,1,5,2.71.62.62,0,0,0,.66.18,20,20,0,0,0,5.38-2l.61-.29a8,8,0,0,1-1.63,3.07c-.75.86-1.62,1.61-2.42,2.39a19.53,19.53,0,0,0,5.41-1.48A18.11,18.11,0,0,1,71.86,38c-.65.61-1.35,1.19-2,1.76a.76.76,0,0,0-.3.67,27.11,27.11,0,0,1-1,8.55,29.85,29.85,0,0,1-2.86,6.83,29.31,29.31,0,0,1-4.85,6.34,26.85,26.85,0,0,1-8.83,5.81A28.83,28.83,0,0,1,42.06,70a29.32,29.32,0,0,1-7.12-.57A26.91,26.91,0,0,1,28.14,67c-.89-.47-1.77-1-2.65-1.48A20.38,20.38,0,0,0,40.12,61.34Z"/>
    </clipPath>
    <clipPath id="clip-path-7">
      <path class="cls-1" d="M150,22.75h21.8c.62.08,1.24.21,1.86.25a14.4,14.4,0,0,1,13.73,11.45c.39,1.61.52,3.28.76,4.92v21c-.09.8-.22,1.6-.27,2.4a14.41,14.41,0,0,1-11.42,13.73c-1.7.4-3.47.51-5.21.76h-21c-.71-.09-1.42-.23-2.14-.27-7.91-.45-13.94-6.23-14.16-14.14-.25-8.56-.23-17.14,0-25.7.18-7,4.85-12.26,11.63-13.73C147.07,23.09,148.56,23,150,22.75Zm33,27.38h0c0-3.9.11-7.81,0-11.71-.22-6.54-3.89-10.34-10.42-10.48q-11.64-.25-23.28,0c-6.57.14-10.31,3.87-10.45,10.42q-.26,11.58,0,23.15c.15,6.74,3.88,10.44,10.6,10.57q11.58.24,23.15,0c6.43-.13,10.19-4,10.4-10.37C183.14,57.85,183,54,183,50.13Z"/>
    </clipPath>
    <clipPath id="clip-path-8">
      <path class="cls-1" d="M160.8,64a14,14,0,1,1,14.1-13.89A13.91,13.91,0,0,1,160.8,64ZM170,50.09A9,9,0,1,0,160.8,59,9,9,0,0,0,170,50.09Z"/>
    </clipPath>
    <clipPath id="clip-path-9">
      <path class="cls-1" d="M178.71,35.41a3.27,3.27,0,0,1-3.2,3.35,3.37,3.37,0,0,1-3.35-3.24,3.27,3.27,0,0,1,3.25-3.3A3.15,3.15,0,0,1,178.71,35.41Z"/>
    </clipPath>
    <clipPath id="clip-path-10">
      <path class="cls-1" d="M301.1,45.63v8.63c0,.31-.08.62-.08.92a37.73,37.73,0,0,1-.76,7,6.54,6.54,0,0,1-4.68,5.38,16.54,16.54,0,0,1-3.84.54c-4,.19-8,.41-11.94.44a237.75,237.75,0,0,1-24.61-.61,6.79,6.79,0,0,1-6.4-5.54,44.25,44.25,0,0,1-.76-6.17c-.15-3-.14-6-.12-9a47.74,47.74,0,0,1,.81-9.24,6.79,6.79,0,0,1,6.33-5.75c3.21-.25,6.42-.55,9.64-.59,9.73-.13,19.46-.35,29.18.56a6.62,6.62,0,0,1,6.18,5,39.67,39.67,0,0,1,.83,5.22C301,43.42,301,44.53,301.1,45.63ZM267.66,58.24l16.88-8.75-16.88-8.81Z"/>
    </clipPath>
    <image id="image" width="1920" height="1080" xlink:href="../ASSETS_ES1/BACKGROUND/ES1_Alt_Background.png"/>
  </defs>
  <title>ES1-Sociaux</title>
  <g class="cls-2">
    <use transform="translate(-359.07 -252.64) scale(0.59)" xlink:href="#image"/>
  </g>
  <g class="cls-3">
    <use transform="translate(-401.9 -220.13) scale(0.59)" xlink:href="#image"/>
  </g>
  <g class="cls-4">
    <path d="M50,96.5A46.5,46.5,0,1,1,96.5,50,46.55,46.55,0,0,1,50,96.5ZM50,7.17A42.83,42.83,0,1,0,92.83,50,42.87,42.87,0,0,0,50,7.17Z"/>
    <use transform="translate(-497.65 -244.1) scale(0.59)" xlink:href="#image"/>
  </g>
  <g class="cls-5">
    <use transform="translate(-476.1 -338.96) scale(0.48)" xlink:href="#image"/>
  </g>
  <g class="cls-6">
    <use transform="translate(-474.65 -282.6) scale(0.59)" xlink:href="#image"/>
  </g>
  <g class="cls-7">
    <path d="M40.12,61.34a10.12,10.12,0,0,1-9.21-7.05,9.81,9.81,0,0,0,4.28-.19,10.41,10.41,0,0,1-5.68-3.63,9.94,9.94,0,0,1-2.19-6.38,10,10,0,0,0,4.4,1.2c-4.46-3.7-5.43-8.15-3-13.48a28.93,28.93,0,0,0,20.84,10.6c-.06-.64-.15-1.21-.17-1.8a9.71,9.71,0,0,1,3.15-7.86,9.84,9.84,0,0,1,9-2.53,9.38,9.38,0,0,1,5,2.71.62.62,0,0,0,.66.18,20,20,0,0,0,5.38-2l.61-.29a8,8,0,0,1-1.63,3.07c-.75.86-1.62,1.61-2.42,2.39a19.53,19.53,0,0,0,5.41-1.48A18.11,18.11,0,0,1,71.86,38c-.65.61-1.35,1.19-2,1.76a.76.76,0,0,0-.3.67,27.11,27.11,0,0,1-1,8.55,29.85,29.85,0,0,1-2.86,6.83,29.31,29.31,0,0,1-4.85,6.34,26.85,26.85,0,0,1-8.83,5.81A28.83,28.83,0,0,1,42.06,70a29.32,29.32,0,0,1-7.12-.57A26.91,26.91,0,0,1,28.14,67c-.89-.47-1.77-1-2.65-1.48A20.38,20.38,0,0,0,40.12,61.34Z"/>
    <path d="M40.12,61.34a10.12,10.12,0,0,1-9.21-7.05,9.81,9.81,0,0,0,4.28-.19,10.41,10.41,0,0,1-5.68-3.63,9.94,9.94,0,0,1-2.19-6.38,10,10,0,0,0,4.4,1.2c-4.46-3.7-5.43-8.15-3-13.48a28.93,28.93,0,0,0,20.84,10.6c-.06-.64-.15-1.21-.17-1.8a9.71,9.71,0,0,1,3.15-7.86,9.84,9.84,0,0,1,9-2.53,9.38,9.38,0,0,1,5,2.71.62.62,0,0,0,.66.18,20,20,0,0,0,5.38-2l.61-.29a8,8,0,0,1-1.63,3.07c-.75.86-1.62,1.61-2.42,2.39a19.53,19.53,0,0,0,5.41-1.48A18.11,18.11,0,0,1,71.86,38c-.65.61-1.35,1.19-2,1.76a.76.76,0,0,0-.3.67,27.11,27.11,0,0,1-1,8.55,29.85,29.85,0,0,1-2.86,6.83,29.31,29.31,0,0,1-4.85,6.34,26.85,26.85,0,0,1-8.83,5.81A28.83,28.83,0,0,1,42.06,70a29.32,29.32,0,0,1-7.12-.57A26.91,26.91,0,0,1,28.14,67c-.89-.47-1.77-1-2.65-1.48A20.38,20.38,0,0,0,40.12,61.34Z"/>
    <use transform="translate(-397.26 -143.86) scale(0.52)" xlink:href="#image"/>
  </g>
  <g>
    <g class="cls-8">
      <use transform="translate(-40.4 -71.07) scale(0.21)" xlink:href="#image"/>
      <use transform="translate(-268.92 -159.24) scale(0.45)" xlink:href="#image"/>
    </g>
    <g class="cls-9">
      <use transform="translate(-107.56 -103.28) scale(0.29)" xlink:href="#image"/>
    </g>
    <g class="cls-10">
      <use transform="translate(83.12 -13.83) scale(0.1)" xlink:href="#image"/>
    </g>
  </g>
  <g class="cls-11">
    <use transform="translate(-158.17 -160.28) scale(0.41)" xlink:href="#image"/>
  </g>
</svg>
