<svg id="Calque_1" data-name="Calque 1" xmlns="http://www.w3.org/2000/svg" xmlns:xlink="http://www.w3.org/1999/xlink" width="100" height="100" viewBox="0 0 100 100">
  <defs>
    <style>
      .cls-1 {
        fill: url(#Nouvelle_nuance_de_dégradé_1_4);
      }

      .cls-2 {
        fill: url(#Nouvelle_nuance_de_dégradé_1_3);
      }

      .cls-3 {
        clip-path: url(#clip-path);
      }

      .cls-4 {
        clip-path: url(#clip-path-2);
      }
    </style>
    <linearGradient id="Nouvelle_nuance_de_dégradé_1_4" data-name="Nouvelle nuance de dégradé 1 4" x1="29.26" y1="76.16" x2="70.75" y2="34.67" gradientUnits="userSpaceOnUse">
      <stop offset="0" stop-color="#4d6267"/>
      <stop offset="0.04" stop-color="#516365"/>
      <stop offset="0.08" stop-color="#5d645e"/>
      <stop offset="0.13" stop-color="#716753"/>
      <stop offset="0.15" stop-color="#7d684d"/>
      <stop offset="0.18" stop-color="#81684b"/>
      <stop offset="0.23" stop-color="#8e6943"/>
      <stop offset="0.27" stop-color="#a36a38"/>
      <stop offset="0.29" stop-color="#b66b2d"/>
      <stop offset="0.42" stop-color="#d37427"/>
      <stop offset="0.56" stop-color="#ed7b22"/>
      <stop offset="0.65" stop-color="#f77e20"/>
      <stop offset="0.71" stop-color="#f77f22"/>
      <stop offset="0.74" stop-color="#f78429"/>
      <stop offset="0.75" stop-color="#f88b34"/>
      <stop offset="0.77" stop-color="#f89645"/>
      <stop offset="0.78" stop-color="#f9a55b"/>
      <stop offset="0.79" stop-color="#fab677"/>
      <stop offset="0.8" stop-color="#fbcc97"/>
      <stop offset="0.81" stop-color="#fce3bb"/>
      <stop offset="0.81" stop-color="#fefee4"/>
      <stop offset="0.81" stop-color="#feffe6"/>
      <stop offset="0.98" stop-color="#ffbe7c"/>
    </linearGradient>
    <linearGradient id="Nouvelle_nuance_de_dégradé_1_3" data-name="Nouvelle nuance de dégradé 1 3" x1="-373.03" y1="-119.13" x2="-307.3" y2="-184.87" gradientTransform="translate(-290.33 -102) rotate(180)" gradientUnits="userSpaceOnUse">
      <stop offset="0" stop-color="#ff8722"/>
      <stop offset="0.05" stop-color="#ff8a26"/>
      <stop offset="0.1" stop-color="#ff9332"/>
      <stop offset="0.15" stop-color="#ffa347"/>
      <stop offset="0.2" stop-color="#ffb963"/>
      <stop offset="0.25" stop-color="#ffd487"/>
      <stop offset="0.29" stop-color="#fff4b1"/>
      <stop offset="0.31" stop-color="#feeea9"/>
      <stop offset="0.4" stop-color="#fabe6f"/>
      <stop offset="0.48" stop-color="#f69b44"/>
      <stop offset="0.54" stop-color="#f4862a"/>
      <stop offset="0.57" stop-color="#f37e20"/>
      <stop offset="0.93" stop-color="#b07329"/>
      <stop offset="0.99" stop-color="#3a3d00"/>
    </linearGradient>
    <clipPath id="clip-path">
      <path class="cls-1" d="M50.38,78.6h-.77c-3.61,0-5.92-1.63-8.16-3.22A12,12,0,0,0,36.72,73a15.19,15.19,0,0,0-2.48-.21,17.33,17.33,0,0,0-3.45.39,7.2,7.2,0,0,1-1.28.18.8.8,0,0,1-.89-.63c-.14-.49-.24-1-.34-1.41-.26-1.18-.44-1.9-.93-2-5.73-.89-7.37-2.09-7.73-2.95a1,1,0,0,1-.09-.37.64.64,0,0,1,.54-.67C28.87,63.88,32.82,54.89,33,54.5l0,0a3.37,3.37,0,0,0,.31-2.81c-.6-1.43-2.57-2-3.88-2.47-.32-.1-.62-.19-.86-.29-2.6-1-2.82-2.08-2.71-2.62a2.45,2.45,0,0,1,2.39-1.56,1.73,1.73,0,0,1,.71.14,7.54,7.54,0,0,0,3.13.83,2.6,2.6,0,0,0,1.88-.6c0-.59-.07-1.22-.11-1.86-.27-4.16-.59-9.33.73-12.28a15.92,15.92,0,0,1,14.78-9.54H50.6a16,16,0,0,1,14.81,9.54c1.32,3,1,8.13.73,12.29v.18c0,.58-.07,1.14-.1,1.68a2.5,2.5,0,0,0,1.71.6h0a7.89,7.89,0,0,0,3-.83,2.19,2.19,0,0,1,.91-.18,2.82,2.82,0,0,1,1.06.2h0a2,2,0,0,1,1.47,1.58c0,.61-.45,1.53-2.73,2.43l-.86.29c-1.31.42-3.28,1-3.88,2.47A3.33,3.33,0,0,0,67,54.47l0,0c.16.38,4.11,9.38,12.91,10.83a.63.63,0,0,1,.54.67,1.18,1.18,0,0,1-.09.37c-.36.85-2,2.06-7.73,2.94-.47.07-.65.68-.93,2-.1.47-.2.92-.34,1.4a.77.77,0,0,1-.82.62h-.07a7.71,7.71,0,0,1-1.28-.16,17.09,17.09,0,0,0-3.45-.37,15.19,15.19,0,0,0-2.48.21,11.93,11.93,0,0,0-4.72,2.41C56.31,77,54,78.6,50.38,78.6Z"/>
    </clipPath>
    <clipPath id="clip-path-2">
      <path class="cls-2" d="M49.83,3.5A46.5,46.5,0,1,1,3.33,50,46.55,46.55,0,0,1,49.83,3.5Zm0,89.33A42.83,42.83,0,1,0,7,50,42.87,42.87,0,0,0,49.83,92.83Z"/>
    </clipPath>
  </defs>
  <title>ES1-Sociaux</title>
  <g>
    <path class="cls-1" d="M50.38,78.6h-.77c-3.61,0-5.92-1.63-8.16-3.22A12,12,0,0,0,36.72,73a15.19,15.19,0,0,0-2.48-.21,17.33,17.33,0,0,0-3.45.39,7.2,7.2,0,0,1-1.28.18.8.8,0,0,1-.89-.63c-.14-.49-.24-1-.34-1.41-.26-1.18-.44-1.9-.93-2-5.73-.89-7.37-2.09-7.73-2.95a1,1,0,0,1-.09-.37.64.64,0,0,1,.54-.67C28.87,63.88,32.82,54.89,33,54.5l0,0a3.37,3.37,0,0,0,.31-2.81c-.6-1.43-2.57-2-3.88-2.47-.32-.1-.62-.19-.86-.29-2.6-1-2.82-2.08-2.71-2.62a2.45,2.45,0,0,1,2.39-1.56,1.73,1.73,0,0,1,.71.14,7.54,7.54,0,0,0,3.13.83,2.6,2.6,0,0,0,1.88-.6c0-.59-.07-1.22-.11-1.86-.27-4.16-.59-9.33.73-12.28a15.92,15.92,0,0,1,14.78-9.54H50.6a16,16,0,0,1,14.81,9.54c1.32,3,1,8.13.73,12.29v.18c0,.58-.07,1.14-.1,1.68a2.5,2.5,0,0,0,1.71.6h0a7.89,7.89,0,0,0,3-.83,2.19,2.19,0,0,1,.91-.18,2.82,2.82,0,0,1,1.06.2h0a2,2,0,0,1,1.47,1.58c0,.61-.45,1.53-2.73,2.43l-.86.29c-1.31.42-3.28,1-3.88,2.47A3.33,3.33,0,0,0,67,54.47l0,0c.16.38,4.11,9.38,12.91,10.83a.63.63,0,0,1,.54.67,1.18,1.18,0,0,1-.09.37c-.36.85-2,2.06-7.73,2.94-.47.07-.65.68-.93,2-.1.47-.2.92-.34,1.4a.77.77,0,0,1-.82.62h-.07a7.71,7.71,0,0,1-1.28-.16,17.09,17.09,0,0,0-3.45-.37,15.19,15.19,0,0,0-2.48.21,11.93,11.93,0,0,0-4.72,2.41C56.31,77,54,78.6,50.38,78.6Z"/>
    <g class="cls-3">
      <path class="cls-1" d="M50.38,78.6h-.77c-3.61,0-5.92-1.63-8.16-3.22A12,12,0,0,0,36.72,73a15.19,15.19,0,0,0-2.48-.21,17.33,17.33,0,0,0-3.45.39,7.2,7.2,0,0,1-1.28.18.8.8,0,0,1-.89-.63c-.14-.49-.24-1-.34-1.41-.26-1.18-.44-1.9-.93-2-5.73-.89-7.37-2.09-7.73-2.95a1,1,0,0,1-.09-.37.64.64,0,0,1,.54-.67C28.87,63.88,32.82,54.89,33,54.5l0,0a3.37,3.37,0,0,0,.31-2.81c-.6-1.43-2.57-2-3.88-2.47-.32-.1-.62-.19-.86-.29-2.6-1-2.82-2.08-2.71-2.62a2.45,2.45,0,0,1,2.39-1.56,1.73,1.73,0,0,1,.71.14,7.54,7.54,0,0,0,3.13.83,2.6,2.6,0,0,0,1.88-.6c0-.59-.07-1.22-.11-1.86-.27-4.16-.59-9.33.73-12.28a15.92,15.92,0,0,1,14.78-9.54H50.6a16,16,0,0,1,14.81,9.54c1.32,3,1,8.13.73,12.29v.18c0,.58-.07,1.14-.1,1.68a2.5,2.5,0,0,0,1.71.6h0a7.89,7.89,0,0,0,3-.83,2.19,2.19,0,0,1,.91-.18,2.82,2.82,0,0,1,1.06.2h0a2,2,0,0,1,1.47,1.58c0,.61-.45,1.53-2.73,2.43l-.86.29c-1.31.42-3.28,1-3.88,2.47A3.33,3.33,0,0,0,67,54.47l0,0c.16.38,4.11,9.38,12.91,10.83a.63.63,0,0,1,.54.67,1.18,1.18,0,0,1-.09.37c-.36.85-2,2.06-7.73,2.94-.47.07-.65.68-.93,2-.1.47-.2.92-.34,1.4a.77.77,0,0,1-.82.62h-.07a7.71,7.71,0,0,1-1.28-.16,17.09,17.09,0,0,0-3.45-.37,15.19,15.19,0,0,0-2.48.21,11.93,11.93,0,0,0-4.72,2.41C56.31,77,54,78.6,50.38,78.6Z"/>
    </g>
  </g>
  <g>
    <path class="cls-2" d="M49.83,3.5A46.5,46.5,0,1,1,3.33,50,46.55,46.55,0,0,1,49.83,3.5Zm0,89.33A42.83,42.83,0,1,0,7,50,42.87,42.87,0,0,0,49.83,92.83Z"/>
    <g class="cls-4">
      <path class="cls-2" d="M49.83,3.5A46.5,46.5,0,1,1,3.33,50,46.55,46.55,0,0,1,49.83,3.5Zm0,89.33A42.83,42.83,0,1,0,7,50,42.87,42.87,0,0,0,49.83,92.83Z"/>
    </g>
  </g>
</svg>
