<svg id="Calque_1" data-name="Calque 1" xmlns="http://www.w3.org/2000/svg" xmlns:xlink="http://www.w3.org/1999/xlink" width="93" height="93" viewBox="0 0 93 93">
  <defs>
    <style>
      .cls-1 {
        fill: url(#Nouvelle_nuance_de_dégradé_1);
      }

      .cls-2 {
        fill: url(#Dégradé_sans_nom_23);
      }

      .cls-3 {
        clip-path: url(#clip-path);
      }
    </style>
    <linearGradient id="Nouvelle_nuance_de_dégradé_1" data-name="Nouvelle nuance de dégradé 1" y1="46.5" x2="93" y2="46.5" gradientUnits="userSpaceOnUse">
      <stop offset="0.11" stop-color="#004555"/>
      <stop offset="0.57" stop-color="#53a6c8"/>
      <stop offset="1"/>
    </linearGradient>
    <linearGradient id="Dégradé_sans_nom_23" data-name="Dégradé sans nom 23" x1="27.29" y1="68.86" x2="74.03" y2="22.11" xlink:href="#Nouvelle_nuance_de_dégradé_1"/>
    <clipPath id="clip-path">
      <path class="cls-1" d="M46.5,93A46.5,46.5,0,1,1,93,46.5,46.55,46.55,0,0,1,46.5,93Zm0-89.33A42.83,42.83,0,1,0,89.33,46.5,42.87,42.87,0,0,0,46.5,3.67Z"/>
    </clipPath>
  </defs>
  <title>ES1-Sociaux</title>
  <path class="cls-2" d="M39.41,80.75a1.73,1.73,0,0,1-1.1-1.85c0-9.39,0-17.68,0-27.09v-.88H29.79c-1.3,0-1.79-.47-1.8-1.75V38.61c0-1.24.52-1.73,1.77-1.73,2.59,0,5.17,0,7.76,0h.8V36.1c0-2.72-.06-5.44,0-8.16a16.43,16.43,0,0,1,4-10.6,13.84,13.84,0,0,1,9.15-4.77c3.27-.33,6.59-.23,9.88-.31.69,0,1.38,0,2.07,0A1.41,1.41,0,0,1,65,13.81Q65,18.9,65,24c0,1-.55,1.51-1.61,1.53-2.34,0-4.69,0-7,.11a3.21,3.21,0,0,0-3,1.62,4.74,4.74,0,0,0-.52,2c-.06,2.51,0,5,0,7.66h9.94c1.38,0,1.85.47,1.85,1.84q0,5.22,0,10.44c0,1.29-.48,1.77-1.78,1.77h-10v.84c0,9.12,0,17.9,0,27a1.88,1.88,0,0,1-1.06,2Z"/>
  <g>
    <path class="cls-1" d="M46.5,93A46.5,46.5,0,1,1,93,46.5,46.55,46.55,0,0,1,46.5,93Zm0-89.33A42.83,42.83,0,1,0,89.33,46.5,42.87,42.87,0,0,0,46.5,3.67Z"/>
    <g class="cls-3">
      <path class="cls-1" d="M46.5,93A46.5,46.5,0,1,1,93,46.5,46.55,46.55,0,0,1,46.5,93Zm0-89.33A42.83,42.83,0,1,0,89.33,46.5,42.87,42.87,0,0,0,46.5,3.67Z"/>
    </g>
  </g>
</svg>
