<svg id="Calque_1" data-name="Calque 1" xmlns="http://www.w3.org/2000/svg" xmlns:xlink="http://www.w3.org/1999/xlink" width="100" height="100" viewBox="0 0 100 100">
  <defs>
    <style>
      .cls-1 {
        fill: url(#Dégradé_sans_nom_124);
      }

      .cls-2 {
        fill: url(#Dégradé_sans_nom_124-2);
      }

      .cls-3 {
        clip-path: url(#clip-path);
      }

      .cls-4 {
        clip-path: url(#clip-path-2);
      }
    </style>
    <linearGradient id="Dégradé_sans_nom_124" data-name="Dégradé sans nom 124" x1="26.75" y1="90.26" x2="73.25" y2="9.74" gradientUnits="userSpaceOnUse">
      <stop offset="0" stop-color="#4d6267"/>
      <stop offset="0.04" stop-color="#516365"/>
      <stop offset="0.08" stop-color="#5d645e"/>
      <stop offset="0.13" stop-color="#716753"/>
      <stop offset="0.15" stop-color="#7d684d"/>
      <stop offset="0.18" stop-color="#81684b"/>
      <stop offset="0.23" stop-color="#8e6943"/>
      <stop offset="0.27" stop-color="#a36a38"/>
      <stop offset="0.29" stop-color="#b66b2d"/>
      <stop offset="0.42" stop-color="#d37427"/>
      <stop offset="0.56" stop-color="#ed7b22"/>
      <stop offset="0.65" stop-color="#f77e20"/>
      <stop offset="0.67" stop-color="#f78125"/>
      <stop offset="0.69" stop-color="#f88a32"/>
      <stop offset="0.72" stop-color="#f89949"/>
      <stop offset="0.74" stop-color="#faad68"/>
      <stop offset="0.77" stop-color="#fbc891"/>
      <stop offset="0.8" stop-color="#fde8c2"/>
      <stop offset="0.81" stop-color="#feffe6"/>
      <stop offset="0.82" stop-color="#fef4d3"/>
      <stop offset="0.83" stop-color="#fee3b8"/>
      <stop offset="0.85" stop-color="#ffd5a2"/>
      <stop offset="0.86" stop-color="#ffcb91"/>
      <stop offset="0.88" stop-color="#ffc385"/>
      <stop offset="0.91" stop-color="#ffbf7e"/>
      <stop offset="0.98" stop-color="#ffbe7c"/>
    </linearGradient>
    <linearGradient id="Dégradé_sans_nom_124-2" x1="32.31" y1="69.49" x2="59.28" y2="22.78" xlink:href="#Dégradé_sans_nom_124"/>
    <clipPath id="clip-path">
      <path class="cls-1" d="M50,96.5A46.5,46.5,0,1,1,96.5,50,46.55,46.55,0,0,1,50,96.5ZM50,7.17A42.83,42.83,0,1,0,92.83,50,42.87,42.87,0,0,0,50,7.17Z"/>
    </clipPath>
    <clipPath id="clip-path-2">
      <path class="cls-2" d="M40.12,61.34a10.12,10.12,0,0,1-9.21-7.05,9.81,9.81,0,0,0,4.28-.19,10.41,10.41,0,0,1-5.68-3.63,9.94,9.94,0,0,1-2.19-6.38,10,10,0,0,0,4.4,1.2c-4.46-3.7-5.43-8.15-3-13.48a28.93,28.93,0,0,0,20.84,10.6c-.06-.64-.15-1.21-.17-1.8a9.71,9.71,0,0,1,3.15-7.86,9.84,9.84,0,0,1,9-2.53,9.38,9.38,0,0,1,5,2.71.62.62,0,0,0,.66.18,20,20,0,0,0,5.38-2l.61-.29a8,8,0,0,1-1.63,3.07c-.75.86-1.62,1.61-2.42,2.39a19.53,19.53,0,0,0,5.41-1.48A18.11,18.11,0,0,1,71.86,38c-.65.61-1.35,1.19-2,1.76a.76.76,0,0,0-.3.67,27.11,27.11,0,0,1-1,8.55,29.85,29.85,0,0,1-2.86,6.83,29.31,29.31,0,0,1-4.85,6.34,26.85,26.85,0,0,1-8.83,5.81A28.83,28.83,0,0,1,42.06,70a29.32,29.32,0,0,1-7.12-.57A26.91,26.91,0,0,1,28.14,67c-.89-.47-1.77-1-2.65-1.48A20.38,20.38,0,0,0,40.12,61.34Z"/>
    </clipPath>
  </defs>
  <title>ES1-Sociaux</title>
  <g>
    <path class="cls-1" d="M50,96.5A46.5,46.5,0,1,1,96.5,50,46.55,46.55,0,0,1,50,96.5ZM50,7.17A42.83,42.83,0,1,0,92.83,50,42.87,42.87,0,0,0,50,7.17Z"/>
    <g class="cls-3">
      <path class="cls-1" d="M50,96.5A46.5,46.5,0,1,1,96.5,50,46.55,46.55,0,0,1,50,96.5ZM50,7.17A42.83,42.83,0,1,0,92.83,50,42.87,42.87,0,0,0,50,7.17Z"/>
    </g>
  </g>
  <g>
    <path class="cls-2" d="M40.12,61.34a10.12,10.12,0,0,1-9.21-7.05,9.81,9.81,0,0,0,4.28-.19,10.41,10.41,0,0,1-5.68-3.63,9.94,9.94,0,0,1-2.19-6.38,10,10,0,0,0,4.4,1.2c-4.46-3.7-5.43-8.15-3-13.48a28.93,28.93,0,0,0,20.84,10.6c-.06-.64-.15-1.21-.17-1.8a9.71,9.71,0,0,1,3.15-7.86,9.84,9.84,0,0,1,9-2.53,9.38,9.38,0,0,1,5,2.71.62.62,0,0,0,.66.18,20,20,0,0,0,5.38-2l.61-.29a8,8,0,0,1-1.63,3.07c-.75.86-1.62,1.61-2.42,2.39a19.53,19.53,0,0,0,5.41-1.48A18.11,18.11,0,0,1,71.86,38c-.65.61-1.35,1.19-2,1.76a.76.76,0,0,0-.3.67,27.11,27.11,0,0,1-1,8.55,29.85,29.85,0,0,1-2.86,6.83,29.31,29.31,0,0,1-4.85,6.34,26.85,26.85,0,0,1-8.83,5.81A28.83,28.83,0,0,1,42.06,70a29.32,29.32,0,0,1-7.12-.57A26.91,26.91,0,0,1,28.14,67c-.89-.47-1.77-1-2.65-1.48A20.38,20.38,0,0,0,40.12,61.34Z"/>
    <g class="cls-4">
      <path class="cls-2" d="M40.12,61.34a10.12,10.12,0,0,1-9.21-7.05,9.81,9.81,0,0,0,4.28-.19,10.41,10.41,0,0,1-5.68-3.63,9.94,9.94,0,0,1-2.19-6.38,10,10,0,0,0,4.4,1.2c-4.46-3.7-5.43-8.15-3-13.48a28.93,28.93,0,0,0,20.84,10.6c-.06-.64-.15-1.21-.17-1.8a9.71,9.71,0,0,1,3.15-7.86,9.84,9.84,0,0,1,9-2.53,9.38,9.38,0,0,1,5,2.71.62.62,0,0,0,.66.18,20,20,0,0,0,5.38-2l.61-.29a8,8,0,0,1-1.63,3.07c-.75.86-1.62,1.61-2.42,2.39a19.53,19.53,0,0,0,5.41-1.48A18.11,18.11,0,0,1,71.86,38c-.65.61-1.35,1.19-2,1.76a.76.76,0,0,0-.3.67,27.11,27.11,0,0,1-1,8.55,29.85,29.85,0,0,1-2.86,6.83,29.31,29.31,0,0,1-4.85,6.34,26.85,26.85,0,0,1-8.83,5.81A28.83,28.83,0,0,1,42.06,70a29.32,29.32,0,0,1-7.12-.57A26.91,26.91,0,0,1,28.14,67c-.89-.47-1.77-1-2.65-1.48A20.38,20.38,0,0,0,40.12,61.34Z"/>
      <path class="cls-2" d="M40.12,61.34a10.12,10.12,0,0,1-9.21-7.05,9.81,9.81,0,0,0,4.28-.19,10.41,10.41,0,0,1-5.68-3.63,9.94,9.94,0,0,1-2.19-6.38,10,10,0,0,0,4.4,1.2c-4.46-3.7-5.43-8.15-3-13.48a28.93,28.93,0,0,0,20.84,10.6c-.06-.64-.15-1.21-.17-1.8a9.71,9.71,0,0,1,3.15-7.86,9.84,9.84,0,0,1,9-2.53,9.38,9.38,0,0,1,5,2.71.62.62,0,0,0,.66.18,20,20,0,0,0,5.38-2l.61-.29a8,8,0,0,1-1.63,3.07c-.75.86-1.62,1.61-2.42,2.39a19.53,19.53,0,0,0,5.41-1.48A18.11,18.11,0,0,1,71.86,38c-.65.61-1.35,1.19-2,1.76a.76.76,0,0,0-.3.67,27.11,27.11,0,0,1-1,8.55,29.85,29.85,0,0,1-2.86,6.83,29.31,29.31,0,0,1-4.85,6.34,26.85,26.85,0,0,1-8.83,5.81A28.83,28.83,0,0,1,42.06,70a29.32,29.32,0,0,1-7.12-.57A26.91,26.91,0,0,1,28.14,67c-.89-.47-1.77-1-2.65-1.48A20.38,20.38,0,0,0,40.12,61.34Z"/>
    </g>
  </g>
</svg>
